<?xml version="1.0" standalone="no"?>
<!DOCTYPE svg PUBLIC "-//W3C//DTD SVG 20010904//EN"
 "http://www.w3.org/TR/2001/REC-SVG-20010904/DTD/svg10.dtd">
<svg version="1.0" xmlns="http://www.w3.org/2000/svg"
 width="379.000000pt" height="379.000000pt" viewBox="0 0 379.000000 379.000000"
 preserveAspectRatio="xMidYMid meet">
<metadata>
Created by potrace 1.14, written by Peter Selinger 2001-2017
</metadata>
<g transform="translate(0.000000,379.000000) scale(0.100000,-0.100000)"
fill="#000000" stroke="none">
<path d="M1738 3785 c-2 -1 -30 -5 -63 -9 -194 -20 -426 -87 -600 -173 -590
-291 -971 -822 -1060 -1473 -12 -92 -15 -446 -3 -466 3 -5 9 -34 12 -64 25
-215 152 -543 291 -750 93 -138 236 -300 348 -395 245 -209 573 -366 872 -420
22 -4 49 -9 60 -11 93 -16 207 -23 356 -20 97 2 181 6 185 9 5 3 32 8 59 11
148 20 343 81 510 160 392 186 688 476 880 861 61 124 125 284 140 355 54 244
59 290 60 490 0 163 -6 242 -26 343 -6 29 -12 63 -15 77 -26 136 -121 383
-199 515 -13 22 -31 54 -39 70 -51 95 -250 328 -366 430 -287 249 -662 412
-1045 454 -73 8 -350 13 -357 6z"/>
</g>
</svg>
